<?xml version="1.0" encoding="iso-8859-1"?>
<!-- Uploaded to: SVG Repo, www.svgrepo.com, Generator: SVG Repo Mixer Tools -->
<svg version="1.1" id="Layer_1" xmlns="http://www.w3.org/2000/svg" xmlns:xlink="http://www.w3.org/1999/xlink" 
	 viewBox="0 0 512 512" xml:space="preserve">
<path style="fill:#EFBA50;" d="M333.817,73.836V10.779C333.817,4.85,328.965,0,323.036,0h-161.57
	c-5.929,0-10.778,4.85-10.778,10.779v63.056H333.817z"/>
<rect x="150.685" y="21.558" style="fill:#BF953E;" width="183.129" height="16.169"/>
<path style="opacity:0.1;enable-background:new    ;" d="M195.637,0h-34.171c-5.929,0-10.778,4.85-10.778,10.779v63.056h34.171
	V10.779C184.859,4.85,189.71,0,195.637,0z"/>
<path style="fill:#BF953E;" d="M427.095,229.817h-21.267v52.366h21.268c5.928,0,10.778-4.85,10.778-10.779v-30.808
	C437.874,234.667,433.022,229.817,427.095,229.817z"/>
<path style="fill:#EFBA50;" d="M150.688,438.164v63.056c0,5.929,4.85,10.779,10.778,10.779h161.57
	c5.929,0,10.779-4.85,10.779-10.779v-63.056L150.688,438.164L150.688,438.164z"/>
<path style="opacity:0.1;enable-background:new    ;" d="M184.859,501.221v-63.056h-34.171v63.056
	c0,5.929,4.85,10.779,10.778,10.779h34.171C189.71,512,184.859,507.15,184.859,501.221z"/>
<g>
	<path style="fill:#BF953E;" d="M333.817,474.274h-90.751c-4.465,0-8.084,3.62-8.084,8.084c0,4.465,3.62,8.084,8.084,8.084h90.751
		V474.274z"/>
	<path style="fill:#BF953E;" d="M207.845,474.769h-57.157v15.673h57.157c4.329,0,7.837-3.509,7.837-7.837
		C215.682,478.278,212.174,474.769,207.845,474.769z"/>
</g>
<g>
	<path style="fill:#37C4B3;" d="M135.398,447.953c0.72,2.22,2.791,3.724,5.125,3.724h203.458c2.334,0,4.404-1.504,5.125-3.724
		l33.676-103.644h-281.06L135.398,447.953z"/>
	<path style="fill:#37C4B3;" d="M384.25,170.633L349.112,62.487c-0.717-2.238-2.779-3.742-5.132-3.742H140.522
		c-2.329,0-4.385,1.486-5.125,3.724l-35.143,108.164c-0.517,1.59-0.241,3.332,0.742,4.685c0.982,1.353,2.554,2.154,4.227,2.154
		h274.059c1.673,0,3.243-0.8,4.227-2.154C384.492,173.965,384.767,172.223,384.25,170.633z"/>
</g>
<path style="opacity:0.1;enable-background:new    ;" d="M168.951,447.953l-33.676-103.644h-33.552l33.675,103.644
	c0.72,2.22,2.791,3.724,5.125,3.724h33.553C171.742,451.678,169.673,450.173,168.951,447.953z"/>
<path style="opacity:0.1;enable-background:new    ;" d="M174.532,58.745h-34.01c-2.334,0-4.404,1.504-5.125,3.724L98.031,177.471
	h34.01l37.366-115.001C170.128,60.249,172.198,58.745,174.532,58.745z"/>
<path style="fill:#5A482E;" d="M242.253,389.544c-74.171,0-134.516-59.908-134.516-133.544s60.345-133.544,134.516-133.544
	c74.169,0,134.514,59.908,134.514,133.544S316.422,389.544,242.253,389.544z"/>
<g>
	<path style="fill:#37C4B3;" d="M241.174,361.416c-4.465,0-8.083,3.62-8.083,8.084v14.991c0,4.465,3.618,8.084,8.083,8.084
		s8.084-3.62,8.084-8.084V369.5C249.258,365.035,245.639,361.416,241.174,361.416z"/>
	<path style="fill:#37C4B3;" d="M371.678,248.987h-15.099c-4.465,0-8.083,3.62-8.083,8.084c0,4.465,3.618,8.084,8.083,8.084h15.099
		c4.465,0,8.084-3.62,8.084-8.084C379.762,252.606,376.142,248.987,371.678,248.987z"/>
	<path style="fill:#37C4B3;" d="M243.33,150.584c4.466,0,8.083-3.62,8.083-8.084v-14.991c0-4.465-3.618-8.084-8.083-8.084
		s-8.084,3.62-8.084,8.084V142.5C235.245,146.965,238.865,150.584,243.33,150.584z"/>
	<path style="fill:#37C4B3;" d="M127.927,246.846h-15.099c-4.465,0-8.084,3.62-8.084,8.084c0,4.465,3.62,8.084,8.084,8.084h15.098
		c4.465,0,8.083-3.62,8.083-8.084C136.01,250.465,132.392,246.846,127.927,246.846z"/>
	<path style="fill:#37C4B3;" d="M275.693,247.916h-26.349v-38.464c0-4.465-3.618-8.084-8.083-8.084s-8.084,3.62-8.084,8.084V256
		c0,4.465,3.62,8.084,8.084,8.084h34.433c4.465,0,8.083-3.62,8.083-8.084C283.777,251.535,280.158,247.916,275.693,247.916z"/>
</g>
<g>
	<path style="fill:#8AA5B6;" d="M328.026,331.277c-3.17-3.146-8.289-3.126-11.432,0.042c-3.147,3.169-3.127,8.287,0.041,11.433
		l10.678,10.6c1.577,1.565,3.636,2.347,5.696,2.347c2.078,0,4.158-0.797,5.736-2.389c3.147-3.169,3.127-8.288-0.041-11.433
		L328.026,331.277z"/>
	<path style="fill:#8AA5B6;" d="M323.856,184.585c2.06,0,4.119-0.783,5.696-2.348l10.679-10.602
		c3.168-3.145,3.187-8.264,0.041-11.432c-3.145-3.168-8.264-3.187-11.432-0.041l-10.678,10.602
		c-3.168,3.145-3.188,8.264-0.042,11.432C319.699,183.788,321.776,184.585,323.856,184.585z"/>
	<path style="fill:#8AA5B6;" d="M157.194,158.65c-3.168-3.144-8.287-3.129-11.432,0.041c-3.146,3.168-3.127,8.287,0.041,11.432
		l10.676,10.6c1.578,1.565,3.636,2.348,5.696,2.348c2.078,0,4.158-0.797,5.736-2.389c3.146-3.168,3.127-8.287-0.041-11.432
		L157.194,158.65z"/>
	<path style="fill:#8AA5B6;" d="M154.953,329.762l-10.678,10.602c-3.168,3.145-3.187,8.264-0.041,11.432
		c1.58,1.591,3.658,2.389,5.736,2.389c2.059,0,4.119-0.783,5.696-2.348l10.678-10.6c3.168-3.145,3.188-8.264,0.041-11.432
		C163.241,326.635,158.123,326.616,154.953,329.762z"/>
</g>
<path style="opacity:0.1;enable-background:new    ;" d="M108.329,256c0-86.452,66.204-157.552,151.024-166.059
	c-5.623-0.563-11.328-0.854-17.1-0.854C149.4,89.087,74.126,163.817,74.126,256S149.4,422.913,242.252,422.913
	c5.772,0,11.477-0.29,17.1-0.854C174.532,413.552,108.329,342.452,108.329,256z"/>
<path style="fill:#EFBA50;" d="M242.253,89.087C149.4,89.087,74.126,163.817,74.126,256S149.4,422.913,242.252,422.913
	c92.851,0,168.124-74.73,168.124-166.913S335.104,89.087,242.253,89.087z M242.253,379.843
	c-68.782,0-124.745-55.556-124.745-123.843s55.963-123.843,124.745-123.843c68.781,0,124.743,55.556,124.743,123.843
	S311.035,379.843,242.253,379.843z"/>
<path style="opacity:0.1;enable-background:new    ;" d="M150.951,256c0-62.658,47.119-114.59,108.023-122.727
	c-5.471-0.73-11.051-1.116-16.72-1.116c-68.782,0-124.745,55.556-124.745,123.843s55.963,123.843,124.745,123.843
	c5.67,0,11.249-0.386,16.72-1.116C198.07,370.591,150.951,318.658,150.951,256z"/>
<path style="fill:#BF953E;" d="M117.508,256c0-13.104,2.068-25.737,5.886-37.602l-38.198-22.053
	c-7.145,18.526-11.07,38.634-11.07,59.655s3.925,41.129,11.07,59.655l38.198-22.053C119.576,281.737,117.508,269.105,117.508,256z"
	/>
</svg>